<mxfile host="app.diagrams.net" modified="2023-05-08T20:48:44.713Z" agent="Mozilla/5.0 (Windows NT 10.0; Win64; x64; rv:109.0) Gecko/20100101 Firefox/112.0" etag="Tcl_PSX4ExqxqitTgsri" version="21.2.9">
  <diagram name="Página-1" id="VRFRgJOAo20ZRT-6pehO">
    <mxGraphModel dx="2261" dy="754" grid="1" gridSize="10" guides="1" tooltips="1" connect="1" arrows="1" fold="1" page="1" pageScale="1" pageWidth="827" pageHeight="1169" math="0" shadow="0">
      <root>
        <mxCell id="0" />
        <mxCell id="1" parent="0" />
        <mxCell id="xvFLnSmrf_E6wjfScRo--1" value="Organización" style="swimlane;fontStyle=0;childLayout=stackLayout;horizontal=1;startSize=26;fillColor=#fff2cc;horizontalStack=0;resizeParent=1;resizeParentMax=0;resizeLast=0;collapsible=1;marginBottom=0;whiteSpace=wrap;html=1;strokeColor=#d6b656;" vertex="1" parent="1">
          <mxGeometry x="190" y="50" width="230" height="122" as="geometry" />
        </mxCell>
        <mxCell id="xvFLnSmrf_E6wjfScRo--2" value="&lt;div&gt;+ Cod Organización&lt;/div&gt;" style="text;strokeColor=none;fillColor=none;align=left;verticalAlign=top;spacingLeft=4;spacingRight=4;overflow=hidden;rotatable=0;points=[[0,0.5],[1,0.5]];portConstraint=eastwest;whiteSpace=wrap;html=1;" vertex="1" parent="xvFLnSmrf_E6wjfScRo--1">
          <mxGeometry y="26" width="230" height="26" as="geometry" />
        </mxCell>
        <mxCell id="xvFLnSmrf_E6wjfScRo--3" value="+ Nombre Organización" style="text;strokeColor=none;fillColor=none;align=left;verticalAlign=top;spacingLeft=4;spacingRight=4;overflow=hidden;rotatable=0;points=[[0,0.5],[1,0.5]];portConstraint=eastwest;whiteSpace=wrap;html=1;" vertex="1" parent="xvFLnSmrf_E6wjfScRo--1">
          <mxGeometry y="52" width="230" height="26" as="geometry" />
        </mxCell>
        <mxCell id="xvFLnSmrf_E6wjfScRo--4" value="+ Organización" style="text;strokeColor=none;fillColor=none;align=left;verticalAlign=top;spacingLeft=4;spacingRight=4;overflow=hidden;rotatable=0;points=[[0,0.5],[1,0.5]];portConstraint=eastwest;whiteSpace=wrap;html=1;" vertex="1" parent="xvFLnSmrf_E6wjfScRo--1">
          <mxGeometry y="78" width="230" height="22" as="geometry" />
        </mxCell>
        <mxCell id="xvFLnSmrf_E6wjfScRo--6" value="+ Tipo Organización" style="text;strokeColor=none;fillColor=none;align=left;verticalAlign=top;spacingLeft=4;spacingRight=4;overflow=hidden;rotatable=0;points=[[0,0.5],[1,0.5]];portConstraint=eastwest;whiteSpace=wrap;html=1;" vertex="1" parent="xvFLnSmrf_E6wjfScRo--1">
          <mxGeometry y="100" width="230" height="22" as="geometry" />
        </mxCell>
        <mxCell id="xvFLnSmrf_E6wjfScRo--23" style="edgeStyle=orthogonalEdgeStyle;rounded=0;orthogonalLoop=1;jettySize=auto;html=1;entryX=0.5;entryY=1;entryDx=0;entryDy=0;" edge="1" parent="1" source="xvFLnSmrf_E6wjfScRo--12" target="xvFLnSmrf_E6wjfScRo--1">
          <mxGeometry relative="1" as="geometry" />
        </mxCell>
        <mxCell id="xvFLnSmrf_E6wjfScRo--32" style="edgeStyle=orthogonalEdgeStyle;rounded=0;orthogonalLoop=1;jettySize=auto;html=1;" edge="1" parent="1" source="xvFLnSmrf_E6wjfScRo--12" target="xvFLnSmrf_E6wjfScRo--25">
          <mxGeometry relative="1" as="geometry" />
        </mxCell>
        <mxCell id="xvFLnSmrf_E6wjfScRo--75" style="edgeStyle=orthogonalEdgeStyle;rounded=0;orthogonalLoop=1;jettySize=auto;html=1;entryX=0.422;entryY=0.018;entryDx=0;entryDy=0;entryPerimeter=0;" edge="1" parent="1" source="xvFLnSmrf_E6wjfScRo--12" target="xvFLnSmrf_E6wjfScRo--67">
          <mxGeometry relative="1" as="geometry" />
        </mxCell>
        <mxCell id="xvFLnSmrf_E6wjfScRo--12" value="Trabajador" style="swimlane;fontStyle=0;childLayout=stackLayout;horizontal=1;startSize=26;fillColor=#f8cecc;horizontalStack=0;resizeParent=1;resizeParentMax=0;resizeLast=0;collapsible=1;marginBottom=0;whiteSpace=wrap;html=1;strokeColor=#b85450;" vertex="1" parent="1">
          <mxGeometry x="190" y="250" width="230" height="188" as="geometry" />
        </mxCell>
        <mxCell id="xvFLnSmrf_E6wjfScRo--13" value="&lt;div&gt;+ Número SS&lt;br&gt;&lt;/div&gt;" style="text;strokeColor=none;fillColor=none;align=left;verticalAlign=top;spacingLeft=4;spacingRight=4;overflow=hidden;rotatable=0;points=[[0,0.5],[1,0.5]];portConstraint=eastwest;whiteSpace=wrap;html=1;" vertex="1" parent="xvFLnSmrf_E6wjfScRo--12">
          <mxGeometry y="26" width="230" height="26" as="geometry" />
        </mxCell>
        <mxCell id="xvFLnSmrf_E6wjfScRo--14" value="+ Apellidos" style="text;strokeColor=none;fillColor=none;align=left;verticalAlign=top;spacingLeft=4;spacingRight=4;overflow=hidden;rotatable=0;points=[[0,0.5],[1,0.5]];portConstraint=eastwest;whiteSpace=wrap;html=1;" vertex="1" parent="xvFLnSmrf_E6wjfScRo--12">
          <mxGeometry y="52" width="230" height="26" as="geometry" />
        </mxCell>
        <mxCell id="xvFLnSmrf_E6wjfScRo--15" value="+ Nombre" style="text;strokeColor=none;fillColor=none;align=left;verticalAlign=top;spacingLeft=4;spacingRight=4;overflow=hidden;rotatable=0;points=[[0,0.5],[1,0.5]];portConstraint=eastwest;whiteSpace=wrap;html=1;" vertex="1" parent="xvFLnSmrf_E6wjfScRo--12">
          <mxGeometry y="78" width="230" height="22" as="geometry" />
        </mxCell>
        <mxCell id="xvFLnSmrf_E6wjfScRo--16" value="+ E-mail" style="text;strokeColor=none;fillColor=none;align=left;verticalAlign=top;spacingLeft=4;spacingRight=4;overflow=hidden;rotatable=0;points=[[0,0.5],[1,0.5]];portConstraint=eastwest;whiteSpace=wrap;html=1;" vertex="1" parent="xvFLnSmrf_E6wjfScRo--12">
          <mxGeometry y="100" width="230" height="22" as="geometry" />
        </mxCell>
        <mxCell id="xvFLnSmrf_E6wjfScRo--17" value="+ Teléfono" style="text;strokeColor=none;fillColor=none;align=left;verticalAlign=top;spacingLeft=4;spacingRight=4;overflow=hidden;rotatable=0;points=[[0,0.5],[1,0.5]];portConstraint=eastwest;whiteSpace=wrap;html=1;" vertex="1" parent="xvFLnSmrf_E6wjfScRo--12">
          <mxGeometry y="122" width="230" height="22" as="geometry" />
        </mxCell>
        <mxCell id="xvFLnSmrf_E6wjfScRo--18" value="+ Fax" style="text;strokeColor=none;fillColor=none;align=left;verticalAlign=top;spacingLeft=4;spacingRight=4;overflow=hidden;rotatable=0;points=[[0,0.5],[1,0.5]];portConstraint=eastwest;whiteSpace=wrap;html=1;" vertex="1" parent="xvFLnSmrf_E6wjfScRo--12">
          <mxGeometry y="144" width="230" height="22" as="geometry" />
        </mxCell>
        <mxCell id="xvFLnSmrf_E6wjfScRo--19" value="+ Despacho" style="text;strokeColor=none;fillColor=none;align=left;verticalAlign=top;spacingLeft=4;spacingRight=4;overflow=hidden;rotatable=0;points=[[0,0.5],[1,0.5]];portConstraint=eastwest;whiteSpace=wrap;html=1;" vertex="1" parent="xvFLnSmrf_E6wjfScRo--12">
          <mxGeometry y="166" width="230" height="22" as="geometry" />
        </mxCell>
        <mxCell id="xvFLnSmrf_E6wjfScRo--24" value="Cargo" style="swimlane;fontStyle=0;childLayout=stackLayout;horizontal=1;startSize=26;fillColor=#e1d5e7;horizontalStack=0;resizeParent=1;resizeParentMax=0;resizeLast=0;collapsible=1;marginBottom=0;whiteSpace=wrap;html=1;strokeColor=#9673a6;" vertex="1" parent="1">
          <mxGeometry x="-170" y="305" width="230" height="78" as="geometry" />
        </mxCell>
        <mxCell id="xvFLnSmrf_E6wjfScRo--25" value="&lt;div&gt;+ Cod Cargo&lt;br&gt;&lt;/div&gt;" style="text;strokeColor=none;fillColor=none;align=left;verticalAlign=top;spacingLeft=4;spacingRight=4;overflow=hidden;rotatable=0;points=[[0,0.5],[1,0.5]];portConstraint=eastwest;whiteSpace=wrap;html=1;" vertex="1" parent="xvFLnSmrf_E6wjfScRo--24">
          <mxGeometry y="26" width="230" height="26" as="geometry" />
        </mxCell>
        <mxCell id="xvFLnSmrf_E6wjfScRo--26" value="+ Nombre Organización" style="text;strokeColor=none;fillColor=none;align=left;verticalAlign=top;spacingLeft=4;spacingRight=4;overflow=hidden;rotatable=0;points=[[0,0.5],[1,0.5]];portConstraint=eastwest;whiteSpace=wrap;html=1;" vertex="1" parent="xvFLnSmrf_E6wjfScRo--24">
          <mxGeometry y="52" width="230" height="26" as="geometry" />
        </mxCell>
        <mxCell id="xvFLnSmrf_E6wjfScRo--33" value="Localización" style="swimlane;fontStyle=0;childLayout=stackLayout;horizontal=1;startSize=26;fillColor=#dae8fc;horizontalStack=0;resizeParent=1;resizeParentMax=0;resizeLast=0;collapsible=1;marginBottom=0;whiteSpace=wrap;html=1;strokeColor=#6c8ebf;" vertex="1" parent="1">
          <mxGeometry x="550" y="40" width="230" height="188" as="geometry" />
        </mxCell>
        <mxCell id="xvFLnSmrf_E6wjfScRo--34" value="&lt;div&gt;+ FML Code&lt;br&gt;&lt;/div&gt;" style="text;strokeColor=none;fillColor=none;align=left;verticalAlign=top;spacingLeft=4;spacingRight=4;overflow=hidden;rotatable=0;points=[[0,0.5],[1,0.5]];portConstraint=eastwest;whiteSpace=wrap;html=1;" vertex="1" parent="xvFLnSmrf_E6wjfScRo--33">
          <mxGeometry y="26" width="230" height="26" as="geometry" />
        </mxCell>
        <mxCell id="xvFLnSmrf_E6wjfScRo--35" value="+ Calle" style="text;strokeColor=none;fillColor=none;align=left;verticalAlign=top;spacingLeft=4;spacingRight=4;overflow=hidden;rotatable=0;points=[[0,0.5],[1,0.5]];portConstraint=eastwest;whiteSpace=wrap;html=1;" vertex="1" parent="xvFLnSmrf_E6wjfScRo--33">
          <mxGeometry y="52" width="230" height="26" as="geometry" />
        </mxCell>
        <mxCell id="xvFLnSmrf_E6wjfScRo--36" value="+ Ciudad" style="text;strokeColor=none;fillColor=none;align=left;verticalAlign=top;spacingLeft=4;spacingRight=4;overflow=hidden;rotatable=0;points=[[0,0.5],[1,0.5]];portConstraint=eastwest;whiteSpace=wrap;html=1;" vertex="1" parent="xvFLnSmrf_E6wjfScRo--33">
          <mxGeometry y="78" width="230" height="22" as="geometry" />
        </mxCell>
        <mxCell id="xvFLnSmrf_E6wjfScRo--37" value="+ Estado" style="text;strokeColor=none;fillColor=none;align=left;verticalAlign=top;spacingLeft=4;spacingRight=4;overflow=hidden;rotatable=0;points=[[0,0.5],[1,0.5]];portConstraint=eastwest;whiteSpace=wrap;html=1;" vertex="1" parent="xvFLnSmrf_E6wjfScRo--33">
          <mxGeometry y="100" width="230" height="22" as="geometry" />
        </mxCell>
        <mxCell id="xvFLnSmrf_E6wjfScRo--38" value="&lt;div&gt;+ Cod Postal&lt;/div&gt;" style="text;strokeColor=none;fillColor=none;align=left;verticalAlign=top;spacingLeft=4;spacingRight=4;overflow=hidden;rotatable=0;points=[[0,0.5],[1,0.5]];portConstraint=eastwest;whiteSpace=wrap;html=1;" vertex="1" parent="xvFLnSmrf_E6wjfScRo--33">
          <mxGeometry y="122" width="230" height="22" as="geometry" />
        </mxCell>
        <mxCell id="xvFLnSmrf_E6wjfScRo--39" value="+ País" style="text;strokeColor=none;fillColor=none;align=left;verticalAlign=top;spacingLeft=4;spacingRight=4;overflow=hidden;rotatable=0;points=[[0,0.5],[1,0.5]];portConstraint=eastwest;whiteSpace=wrap;html=1;" vertex="1" parent="xvFLnSmrf_E6wjfScRo--33">
          <mxGeometry y="144" width="230" height="22" as="geometry" />
        </mxCell>
        <mxCell id="xvFLnSmrf_E6wjfScRo--40" value="+ Cod ISO" style="text;strokeColor=none;fillColor=none;align=left;verticalAlign=top;spacingLeft=4;spacingRight=4;overflow=hidden;rotatable=0;points=[[0,0.5],[1,0.5]];portConstraint=eastwest;whiteSpace=wrap;html=1;" vertex="1" parent="xvFLnSmrf_E6wjfScRo--33">
          <mxGeometry y="166" width="230" height="22" as="geometry" />
        </mxCell>
        <mxCell id="xvFLnSmrf_E6wjfScRo--41" style="edgeStyle=orthogonalEdgeStyle;rounded=0;orthogonalLoop=1;jettySize=auto;html=1;entryX=0;entryY=0.5;entryDx=0;entryDy=0;" edge="1" parent="1" source="xvFLnSmrf_E6wjfScRo--14" target="xvFLnSmrf_E6wjfScRo--36">
          <mxGeometry relative="1" as="geometry" />
        </mxCell>
        <mxCell id="xvFLnSmrf_E6wjfScRo--59" style="edgeStyle=orthogonalEdgeStyle;rounded=0;orthogonalLoop=1;jettySize=auto;html=1;entryX=0.491;entryY=1;entryDx=0;entryDy=0;entryPerimeter=0;" edge="1" parent="1" source="xvFLnSmrf_E6wjfScRo--50" target="xvFLnSmrf_E6wjfScRo--40">
          <mxGeometry relative="1" as="geometry" />
        </mxCell>
        <mxCell id="xvFLnSmrf_E6wjfScRo--74" style="edgeStyle=orthogonalEdgeStyle;rounded=0;orthogonalLoop=1;jettySize=auto;html=1;entryX=0.5;entryY=0;entryDx=0;entryDy=0;" edge="1" parent="1" source="xvFLnSmrf_E6wjfScRo--50" target="xvFLnSmrf_E6wjfScRo--67">
          <mxGeometry relative="1" as="geometry" />
        </mxCell>
        <mxCell id="xvFLnSmrf_E6wjfScRo--50" value="Cliente" style="swimlane;fontStyle=0;childLayout=stackLayout;horizontal=1;startSize=26;fillColor=#ffe6cc;horizontalStack=0;resizeParent=1;resizeParentMax=0;resizeLast=0;collapsible=1;marginBottom=0;whiteSpace=wrap;html=1;strokeColor=#d79b00;" vertex="1" parent="1">
          <mxGeometry x="640" y="330" width="230" height="166" as="geometry" />
        </mxCell>
        <mxCell id="xvFLnSmrf_E6wjfScRo--51" value="&lt;div&gt;+ Id Cliente&lt;br&gt;&lt;/div&gt;" style="text;strokeColor=none;fillColor=none;align=left;verticalAlign=top;spacingLeft=4;spacingRight=4;overflow=hidden;rotatable=0;points=[[0,0.5],[1,0.5]];portConstraint=eastwest;whiteSpace=wrap;html=1;" vertex="1" parent="xvFLnSmrf_E6wjfScRo--50">
          <mxGeometry y="26" width="230" height="26" as="geometry" />
        </mxCell>
        <mxCell id="xvFLnSmrf_E6wjfScRo--52" value="+ Apellidos" style="text;strokeColor=none;fillColor=none;align=left;verticalAlign=top;spacingLeft=4;spacingRight=4;overflow=hidden;rotatable=0;points=[[0,0.5],[1,0.5]];portConstraint=eastwest;whiteSpace=wrap;html=1;" vertex="1" parent="xvFLnSmrf_E6wjfScRo--50">
          <mxGeometry y="52" width="230" height="26" as="geometry" />
        </mxCell>
        <mxCell id="xvFLnSmrf_E6wjfScRo--53" value="+ Nombre" style="text;strokeColor=none;fillColor=none;align=left;verticalAlign=top;spacingLeft=4;spacingRight=4;overflow=hidden;rotatable=0;points=[[0,0.5],[1,0.5]];portConstraint=eastwest;whiteSpace=wrap;html=1;" vertex="1" parent="xvFLnSmrf_E6wjfScRo--50">
          <mxGeometry y="78" width="230" height="22" as="geometry" />
        </mxCell>
        <mxCell id="xvFLnSmrf_E6wjfScRo--54" value="+ E-mail" style="text;strokeColor=none;fillColor=none;align=left;verticalAlign=top;spacingLeft=4;spacingRight=4;overflow=hidden;rotatable=0;points=[[0,0.5],[1,0.5]];portConstraint=eastwest;whiteSpace=wrap;html=1;" vertex="1" parent="xvFLnSmrf_E6wjfScRo--50">
          <mxGeometry y="100" width="230" height="22" as="geometry" />
        </mxCell>
        <mxCell id="xvFLnSmrf_E6wjfScRo--55" value="+ Teléfono" style="text;strokeColor=none;fillColor=none;align=left;verticalAlign=top;spacingLeft=4;spacingRight=4;overflow=hidden;rotatable=0;points=[[0,0.5],[1,0.5]];portConstraint=eastwest;whiteSpace=wrap;html=1;" vertex="1" parent="xvFLnSmrf_E6wjfScRo--50">
          <mxGeometry y="122" width="230" height="22" as="geometry" />
        </mxCell>
        <mxCell id="xvFLnSmrf_E6wjfScRo--56" value="+ Fax" style="text;strokeColor=none;fillColor=none;align=left;verticalAlign=top;spacingLeft=4;spacingRight=4;overflow=hidden;rotatable=0;points=[[0,0.5],[1,0.5]];portConstraint=eastwest;whiteSpace=wrap;html=1;" vertex="1" parent="xvFLnSmrf_E6wjfScRo--50">
          <mxGeometry y="144" width="230" height="22" as="geometry" />
        </mxCell>
        <mxCell id="xvFLnSmrf_E6wjfScRo--58" style="edgeStyle=orthogonalEdgeStyle;rounded=0;orthogonalLoop=1;jettySize=auto;html=1;entryX=0;entryY=0.5;entryDx=0;entryDy=0;" edge="1" parent="1" source="xvFLnSmrf_E6wjfScRo--16" target="xvFLnSmrf_E6wjfScRo--53">
          <mxGeometry relative="1" as="geometry" />
        </mxCell>
        <mxCell id="xvFLnSmrf_E6wjfScRo--92" style="edgeStyle=orthogonalEdgeStyle;rounded=0;orthogonalLoop=1;jettySize=auto;html=1;entryX=1;entryY=0.5;entryDx=0;entryDy=0;" edge="1" parent="1" source="xvFLnSmrf_E6wjfScRo--67" target="xvFLnSmrf_E6wjfScRo--79">
          <mxGeometry relative="1" as="geometry" />
        </mxCell>
        <mxCell id="xvFLnSmrf_E6wjfScRo--93" style="edgeStyle=orthogonalEdgeStyle;rounded=0;orthogonalLoop=1;jettySize=auto;html=1;entryX=0;entryY=0.5;entryDx=0;entryDy=0;" edge="1" parent="1" source="xvFLnSmrf_E6wjfScRo--67" target="xvFLnSmrf_E6wjfScRo--84">
          <mxGeometry relative="1" as="geometry" />
        </mxCell>
        <mxCell id="xvFLnSmrf_E6wjfScRo--67" value="Transacción" style="swimlane;fontStyle=0;childLayout=stackLayout;horizontal=1;startSize=26;fillColor=#f5f5f5;horizontalStack=0;resizeParent=1;resizeParentMax=0;resizeLast=0;collapsible=1;marginBottom=0;whiteSpace=wrap;html=1;strokeColor=#666666;fontColor=#333333;" vertex="1" parent="1">
          <mxGeometry x="410" y="556" width="230" height="166" as="geometry" />
        </mxCell>
        <mxCell id="xvFLnSmrf_E6wjfScRo--68" value="&lt;div&gt;+ Id Transacción&lt;br&gt;&lt;/div&gt;" style="text;strokeColor=none;fillColor=none;align=left;verticalAlign=top;spacingLeft=4;spacingRight=4;overflow=hidden;rotatable=0;points=[[0,0.5],[1,0.5]];portConstraint=eastwest;whiteSpace=wrap;html=1;" vertex="1" parent="xvFLnSmrf_E6wjfScRo--67">
          <mxGeometry y="26" width="230" height="26" as="geometry" />
        </mxCell>
        <mxCell id="xvFLnSmrf_E6wjfScRo--69" value="+ Número SS Empleado" style="text;strokeColor=none;fillColor=none;align=left;verticalAlign=top;spacingLeft=4;spacingRight=4;overflow=hidden;rotatable=0;points=[[0,0.5],[1,0.5]];portConstraint=eastwest;whiteSpace=wrap;html=1;" vertex="1" parent="xvFLnSmrf_E6wjfScRo--67">
          <mxGeometry y="52" width="230" height="26" as="geometry" />
        </mxCell>
        <mxCell id="xvFLnSmrf_E6wjfScRo--70" value="+ Id Cliente" style="text;strokeColor=none;fillColor=none;align=left;verticalAlign=top;spacingLeft=4;spacingRight=4;overflow=hidden;rotatable=0;points=[[0,0.5],[1,0.5]];portConstraint=eastwest;whiteSpace=wrap;html=1;" vertex="1" parent="xvFLnSmrf_E6wjfScRo--67">
          <mxGeometry y="78" width="230" height="22" as="geometry" />
        </mxCell>
        <mxCell id="xvFLnSmrf_E6wjfScRo--71" value="+ Id Venta" style="text;strokeColor=none;fillColor=none;align=left;verticalAlign=top;spacingLeft=4;spacingRight=4;overflow=hidden;rotatable=0;points=[[0,0.5],[1,0.5]];portConstraint=eastwest;whiteSpace=wrap;html=1;" vertex="1" parent="xvFLnSmrf_E6wjfScRo--67">
          <mxGeometry y="100" width="230" height="22" as="geometry" />
        </mxCell>
        <mxCell id="xvFLnSmrf_E6wjfScRo--72" value="+ Id Compra" style="text;strokeColor=none;fillColor=none;align=left;verticalAlign=top;spacingLeft=4;spacingRight=4;overflow=hidden;rotatable=0;points=[[0,0.5],[1,0.5]];portConstraint=eastwest;whiteSpace=wrap;html=1;" vertex="1" parent="xvFLnSmrf_E6wjfScRo--67">
          <mxGeometry y="122" width="230" height="22" as="geometry" />
        </mxCell>
        <mxCell id="xvFLnSmrf_E6wjfScRo--73" value="+ Id Artículo" style="text;strokeColor=none;fillColor=none;align=left;verticalAlign=top;spacingLeft=4;spacingRight=4;overflow=hidden;rotatable=0;points=[[0,0.5],[1,0.5]];portConstraint=eastwest;whiteSpace=wrap;html=1;" vertex="1" parent="xvFLnSmrf_E6wjfScRo--67">
          <mxGeometry y="144" width="230" height="22" as="geometry" />
        </mxCell>
        <mxCell id="xvFLnSmrf_E6wjfScRo--76" value="Compra" style="swimlane;fontStyle=0;childLayout=stackLayout;horizontal=1;startSize=26;fillColor=#d5e8d4;horizontalStack=0;resizeParent=1;resizeParentMax=0;resizeLast=0;collapsible=1;marginBottom=0;whiteSpace=wrap;html=1;strokeColor=#82b366;" vertex="1" parent="1">
          <mxGeometry x="-30" y="604" width="230" height="118" as="geometry" />
        </mxCell>
        <mxCell id="xvFLnSmrf_E6wjfScRo--77" value="&lt;div&gt;+ Id Transacción&lt;br&gt;&lt;/div&gt;" style="text;strokeColor=none;fillColor=none;align=left;verticalAlign=top;spacingLeft=4;spacingRight=4;overflow=hidden;rotatable=0;points=[[0,0.5],[1,0.5]];portConstraint=eastwest;whiteSpace=wrap;html=1;" vertex="1" parent="xvFLnSmrf_E6wjfScRo--76">
          <mxGeometry y="26" width="230" height="26" as="geometry" />
        </mxCell>
        <mxCell id="xvFLnSmrf_E6wjfScRo--79" value="+ Id Cliente" style="text;strokeColor=none;fillColor=none;align=left;verticalAlign=top;spacingLeft=4;spacingRight=4;overflow=hidden;rotatable=0;points=[[0,0.5],[1,0.5]];portConstraint=eastwest;whiteSpace=wrap;html=1;" vertex="1" parent="xvFLnSmrf_E6wjfScRo--76">
          <mxGeometry y="52" width="230" height="22" as="geometry" />
        </mxCell>
        <mxCell id="xvFLnSmrf_E6wjfScRo--81" value="+ Id Compra" style="text;strokeColor=none;fillColor=none;align=left;verticalAlign=top;spacingLeft=4;spacingRight=4;overflow=hidden;rotatable=0;points=[[0,0.5],[1,0.5]];portConstraint=eastwest;whiteSpace=wrap;html=1;" vertex="1" parent="xvFLnSmrf_E6wjfScRo--76">
          <mxGeometry y="74" width="230" height="22" as="geometry" />
        </mxCell>
        <mxCell id="xvFLnSmrf_E6wjfScRo--82" value="+ Id Artículo" style="text;strokeColor=none;fillColor=none;align=left;verticalAlign=top;spacingLeft=4;spacingRight=4;overflow=hidden;rotatable=0;points=[[0,0.5],[1,0.5]];portConstraint=eastwest;whiteSpace=wrap;html=1;" vertex="1" parent="xvFLnSmrf_E6wjfScRo--76">
          <mxGeometry y="96" width="230" height="22" as="geometry" />
        </mxCell>
        <mxCell id="xvFLnSmrf_E6wjfScRo--83" value="Venta" style="swimlane;fontStyle=0;childLayout=stackLayout;horizontal=1;startSize=26;horizontalStack=0;resizeParent=1;resizeParentMax=0;resizeLast=0;collapsible=1;marginBottom=0;whiteSpace=wrap;html=1;" vertex="1" parent="1">
          <mxGeometry x="740" y="600" width="230" height="118" as="geometry" />
        </mxCell>
        <mxCell id="xvFLnSmrf_E6wjfScRo--84" value="&lt;div&gt;+ Id Transacción&lt;br&gt;&lt;/div&gt;" style="text;strokeColor=none;fillColor=none;align=left;verticalAlign=top;spacingLeft=4;spacingRight=4;overflow=hidden;rotatable=0;points=[[0,0.5],[1,0.5]];portConstraint=eastwest;whiteSpace=wrap;html=1;" vertex="1" parent="xvFLnSmrf_E6wjfScRo--83">
          <mxGeometry y="26" width="230" height="26" as="geometry" />
        </mxCell>
        <mxCell id="xvFLnSmrf_E6wjfScRo--86" value="+ Id Cliente" style="text;strokeColor=none;fillColor=none;align=left;verticalAlign=top;spacingLeft=4;spacingRight=4;overflow=hidden;rotatable=0;points=[[0,0.5],[1,0.5]];portConstraint=eastwest;whiteSpace=wrap;html=1;" vertex="1" parent="xvFLnSmrf_E6wjfScRo--83">
          <mxGeometry y="52" width="230" height="22" as="geometry" />
        </mxCell>
        <mxCell id="xvFLnSmrf_E6wjfScRo--87" value="+ Id Venta" style="text;strokeColor=none;fillColor=none;align=left;verticalAlign=top;spacingLeft=4;spacingRight=4;overflow=hidden;rotatable=0;points=[[0,0.5],[1,0.5]];portConstraint=eastwest;whiteSpace=wrap;html=1;" vertex="1" parent="xvFLnSmrf_E6wjfScRo--83">
          <mxGeometry y="74" width="230" height="22" as="geometry" />
        </mxCell>
        <mxCell id="xvFLnSmrf_E6wjfScRo--89" value="+ Id Artículo" style="text;strokeColor=none;fillColor=none;align=left;verticalAlign=top;spacingLeft=4;spacingRight=4;overflow=hidden;rotatable=0;points=[[0,0.5],[1,0.5]];portConstraint=eastwest;whiteSpace=wrap;html=1;" vertex="1" parent="xvFLnSmrf_E6wjfScRo--83">
          <mxGeometry y="96" width="230" height="22" as="geometry" />
        </mxCell>
        <mxCell id="xvFLnSmrf_E6wjfScRo--100" style="edgeStyle=orthogonalEdgeStyle;rounded=0;orthogonalLoop=1;jettySize=auto;html=1;entryX=0.5;entryY=1;entryDx=0;entryDy=0;" edge="1" parent="1" source="xvFLnSmrf_E6wjfScRo--94" target="xvFLnSmrf_E6wjfScRo--67">
          <mxGeometry relative="1" as="geometry" />
        </mxCell>
        <mxCell id="xvFLnSmrf_E6wjfScRo--94" value="Artículo" style="swimlane;fontStyle=0;childLayout=stackLayout;horizontal=1;startSize=26;horizontalStack=0;resizeParent=1;resizeParentMax=0;resizeLast=0;collapsible=1;marginBottom=0;whiteSpace=wrap;html=1;fillColor=#fff2cc;strokeColor=#d6b656;" vertex="1" parent="1">
          <mxGeometry x="410" y="820" width="230" height="140" as="geometry" />
        </mxCell>
        <mxCell id="xvFLnSmrf_E6wjfScRo--95" value="&lt;div&gt;+ Id Artículo&lt;br&gt;&lt;/div&gt;" style="text;strokeColor=none;fillColor=none;align=left;verticalAlign=top;spacingLeft=4;spacingRight=4;overflow=hidden;rotatable=0;points=[[0,0.5],[1,0.5]];portConstraint=eastwest;whiteSpace=wrap;html=1;" vertex="1" parent="xvFLnSmrf_E6wjfScRo--94">
          <mxGeometry y="26" width="230" height="26" as="geometry" />
        </mxCell>
        <mxCell id="xvFLnSmrf_E6wjfScRo--96" value="+ Nombre" style="text;strokeColor=none;fillColor=none;align=left;verticalAlign=top;spacingLeft=4;spacingRight=4;overflow=hidden;rotatable=0;points=[[0,0.5],[1,0.5]];portConstraint=eastwest;whiteSpace=wrap;html=1;" vertex="1" parent="xvFLnSmrf_E6wjfScRo--94">
          <mxGeometry y="52" width="230" height="22" as="geometry" />
        </mxCell>
        <mxCell id="xvFLnSmrf_E6wjfScRo--97" value="+ Tipo" style="text;strokeColor=none;fillColor=none;align=left;verticalAlign=top;spacingLeft=4;spacingRight=4;overflow=hidden;rotatable=0;points=[[0,0.5],[1,0.5]];portConstraint=eastwest;whiteSpace=wrap;html=1;" vertex="1" parent="xvFLnSmrf_E6wjfScRo--94">
          <mxGeometry y="74" width="230" height="22" as="geometry" />
        </mxCell>
        <mxCell id="xvFLnSmrf_E6wjfScRo--98" value="+ Familia" style="text;strokeColor=none;fillColor=none;align=left;verticalAlign=top;spacingLeft=4;spacingRight=4;overflow=hidden;rotatable=0;points=[[0,0.5],[1,0.5]];portConstraint=eastwest;whiteSpace=wrap;html=1;" vertex="1" parent="xvFLnSmrf_E6wjfScRo--94">
          <mxGeometry y="96" width="230" height="22" as="geometry" />
        </mxCell>
        <mxCell id="xvFLnSmrf_E6wjfScRo--99" value="+ Cod Organización Proveedor" style="text;strokeColor=none;fillColor=none;align=left;verticalAlign=top;spacingLeft=4;spacingRight=4;overflow=hidden;rotatable=0;points=[[0,0.5],[1,0.5]];portConstraint=eastwest;whiteSpace=wrap;html=1;" vertex="1" parent="xvFLnSmrf_E6wjfScRo--94">
          <mxGeometry y="118" width="230" height="22" as="geometry" />
        </mxCell>
      </root>
    </mxGraphModel>
  </diagram>
</mxfile>
